<?xml version="1.0" encoding="UTF-8" standalone="no"?>
<svg
   width="64"
   height="64"
   version="1.1"
   id="svg5"
   sodipodi:docname="zerotier-qt.svg"
   inkscape:version="1.4.3 (0d15f75042, 2025-12-25)"
   xmlns:inkscape="http://www.inkscape.org/namespaces/inkscape"
   xmlns:sodipodi="http://sodipodi.sourceforge.net/DTD/sodipodi-0.dtd"
   xmlns="http://www.w3.org/2000/svg"
   xmlns:svg="http://www.w3.org/2000/svg">
  <defs
     id="defs5" />
  <sodipodi:namedview
     id="namedview5"
     pagecolor="#505050"
     bordercolor="#ffffff"
     borderopacity="1"
     inkscape:showpageshadow="0"
     inkscape:pageopacity="0"
     inkscape:pagecheckerboard="1"
     inkscape:deskcolor="#505050"
     inkscape:zoom="12.046875"
     inkscape:cx="24.446174"
     inkscape:cy="30.422827"
     inkscape:window-width="1920"
     inkscape:window-height="980"
     inkscape:window-x="0"
     inkscape:window-y="0"
     inkscape:window-maximized="1"
     inkscape:current-layer="svg5" />
  <rect
     style="opacity:0.2"
     width="57"
     height="57"
     x="4"
     y="4"
     rx="7.125"
     ry="7.125"
     id="rect1" />
  <rect
     style="fill:#ff7316"
     width="57"
     height="57"
     x="4"
     y="3"
     rx="7.125"
     ry="7.125"
     id="rect2" />
  <g
     id="g5"
     inkscape:label="T">
    <path
       style="opacity:0.1"
       d="m 11,11 v 3 h 20 v 5.107422 A 15.5,15.5 0 0 0 17,34.5 15.5,15.5 0 0 0 31,49.892578 V 55 h 3 V 49.892578 A 15.5,15.5 0 0 0 48,34.5 15.5,15.5 0 0 0 34,19.072266 V 14 H 54 V 11 Z M 34,22.09375 A 12.5,12.5 0 0 1 45,34.5 12.5,12.5 0 0 1 34,46.880859 Z m -3,0.02539 V 46.880859 A 12.5,12.5 0 0 1 20,34.5 12.5,12.5 0 0 1 31,22.119141 Z"
       id="path2" />
    <rect
       style="fill:#3e3e3e"
       width="3"
       height="43"
       x="31"
       y="11"
       id="rect3" />
    <rect
       style="fill:#3e3e3e"
       width="3"
       height="43"
       x="10"
       y="-54"
       transform="rotate(90)"
       id="rect4" />
    <path
       style="fill:#3e3e3e"
       d="M 32.5 18 A 15.5 15.5 0 0 0 17 33.5 A 15.5 15.5 0 0 0 32.5 49 A 15.5 15.5 0 0 0 48 33.5 A 15.5 15.5 0 0 0 32.5 18 z M 32.5 21 A 12.5 12.5 0 0 1 45 33.5 A 12.5 12.5 0 0 1 32.5 46 A 12.5 12.5 0 0 1 20 33.5 A 12.5 12.5 0 0 1 32.5 21 z"
       id="path4" />
  </g>
  <path
     style="fill:#ffffff;opacity:0.2"
     d="M 11.125 3 C 7.17775 3 4 6.17775 4 10.125 L 4 11.125 C 4 7.17775 7.17775 4 11.125 4 L 53.875 4 C 57.82225 4 61 7.17775 61 11.125 L 61 10.125 C 61 6.17775 57.82225 3 53.875 3 L 11.125 3 z"
     id="path5" />
</svg>
